<svg id="Layer_1" data-name="Layer 1" xmlns="http://www.w3.org/2000/svg" viewBox="0 0 755.95 728.38"><defs><style>.cls-1{fill:none;}.cls-10,.cls-12,.cls-15,.cls-2,.cls-21,.cls-3,.cls-4,.cls-5,.cls-7,.cls-9{isolation:isolate;fill:#f4144e;font-family:Arial-BoldMT, Arial;font-weight:700;}.cls-2{font-size:130px;}.cls-3{font-size:90px;}.cls-4{font-size:80px;}.cls-5{font-size:60px;}.cls-6{letter-spacing:-0.02em;}.cls-7{font-size:50px;}.cls-8{letter-spacing:-0.06em;}.cls-9{font-size:40px;}.cls-10{font-size:30px;}.cls-11,.cls-21{letter-spacing:-0.07em;}.cls-12{font-size:20px;}.cls-13{letter-spacing:-0.09em;}.cls-14{letter-spacing:-0.04em;}.cls-15,.cls-21{font-size:11.25px;}.cls-16{letter-spacing:0em;}.cls-17{letter-spacing:-0.02em;}.cls-18{letter-spacing:-0.02em;}.cls-19{letter-spacing:-0.02em;}.cls-20{letter-spacing:-0.07em;}.cls-22{letter-spacing:-0.06em;}.cls-23{font-size:12px;font-family:Gotham-MediumItalic, Gotham;font-style:italic;}.cls-24{letter-spacing:-0.01em;}.cls-25{letter-spacing:-0.04em;}.cls-26{letter-spacing:-0.02em;}.cls-27{letter-spacing:0em;}</style></defs><title>first_love</title><path class="cls-1" transform="translate(-29.86 -60.97)"/><text class="cls-2" transform="translate(348.86 220.74)">FIRST</text><text class="cls-3" transform="translate(247.98 409.2)">LOVE</text><text class="cls-4" transform="translate(165.2 284.4)">FRIEND</text><text class="cls-5" transform="translate(340.86 339.03)"><tspan class="cls-6">T</tspan><tspan x="35.57" y="0">OGETHER</tspan></text><text class="cls-7" transform="translate(140.61 220.74)"><tspan class="cls-8">W</tspan><tspan x="44.43" y="0">ANTED</tspan></text><text class="cls-7" transform="translate(507.17 126.06)">SCHOO<tspan class="cls-6" x="183.35" y="0">L</tspan></text><text class="cls-7" transform="translate(495.35 51.44)">YEARS</text><text class="cls-9" transform="translate(147.37 327.05)">COLLEGE</text><text class="cls-9" transform="translate(236.57 177.89)">SAME</text><text class="cls-9" transform="translate(462.05 256.69)">BOYFRIEND</text><text class="cls-9" transform="translate(481.35 438.48)">FUNN<tspan class="cls-6" x="111.09" y="0">Y</tspan></text><text class="cls-10" transform="translate(99.62 150.32)">VOICE</text><text class="cls-10" transform="translate(488.54 365.78)">BEAUTIFU<tspan class="cls-6" x="151.66" y="0">L</tspan></text><text class="cls-10" transform="translate(38.58 90.74)">HOME</text><text class="cls-10" transform="translate(144.2 365.78)">MUSIC</text><text class="cls-10" transform="translate(535.17 398.25)">SMART</text><text class="cls-10" transform="translate(156.19 91.23)">A<tspan class="cls-11" x="21.67" y="0">P</tspan><tspan x="39.45" y="0">ART</tspan></text><text class="cls-10" transform="translate(140.61 177.89)">STIL<tspan class="cls-6" x="65" y="0">L</tspan></text><text class="cls-10" transform="translate(416.15 462.74)">KISSED</text><text class="cls-10" transform="translate(219.01 145.59)">BO<tspan class="cls-6" x="45" y="0">Y</tspan></text><text class="cls-10" transform="translate(266.16 106.54)">BEST</text><text class="cls-10" transform="translate(329.86 438.48)">MONTHS</text><text class="cls-10" transform="translate(418.68 117.82)">YEAR</text><text class="cls-10" transform="translate(462.05 284.4)">STUPID</text><text class="cls-12" transform="translate(266.16 80.14)">SUPER</text><text class="cls-12" transform="translate(343.86 106.54)">LIFE</text><text class="cls-12" transform="translate(134.67 22.66)">WEIRD</text><text class="cls-12" transform="translate(451.47 65.24)">HOUSE</text><text class="cls-12" transform="translate(416.49 505.19)">REA<tspan class="cls-6" x="42.23" y="0">L</tspan></text><text class="cls-12" transform="translate(256.92 488.6)">PL<tspan class="cls-13" x="25.56" y="0">A</tspan><tspan x="38.16" y="0">YED</tspan></text><text class="cls-12" transform="translate(488.54 388.66)">CAR</text><text class="cls-12" transform="translate(245.17 51.44)">MARRIED</text><text class="cls-12" transform="translate(274.92 466.74)"><tspan class="cls-11">P</tspan><tspan x="11.86" y="0">ASSION</tspan><tspan class="cls-11" x="88.54" y="0">A</tspan><tspan x="101.49" y="0">TE</tspan></text><text class="cls-12" transform="translate(92.42 254.6)">SPENT</text><text class="cls-12" transform="translate(462.05 585.39)">FEL<tspan class="cls-6" x="37.77" y="0">L</tspan></text><text class="cls-12" transform="translate(21.93 150.32)">NIGHT</text><text class="cls-12" transform="translate(343.86 485.48)">COUNT<tspan class="cls-14" x="71.1" y="0">R</tspan><tspan class="cls-6" x="84.8" y="0">Y</tspan></text><text class="cls-12" transform="translate(463.21 532.39)">FUN</text><text class="cls-12" transform="translate(295.92 126.06)">YOUNG</text><text class="cls-12" transform="translate(462.04 488.61)">SHANLE<tspan class="cls-6" x="82.23" y="0">Y</tspan></text><text class="cls-12" transform="translate(204.57 435.48)">HOSPI<tspan class="cls-11" x="62.24" y="0">T</tspan><tspan x="72.97" y="0">A</tspan><tspan class="cls-6" x="87.41" y="0">L</tspan></text><text class="cls-12" transform="translate(531.15 81.52)">LOOKING</text><text class="cls-12" transform="translate(403.66 569.12)">15</text><text class="cls-12" transform="translate(535.17 462.74)">D<tspan class="cls-11" x="14.44" y="0">A</tspan><tspan x="27.4" y="0">TED</tspan></text><text class="cls-12" transform="translate(179.3 117.82)">SERIOUS</text><text class="cls-12" transform="translate(59.86 210.45)">BROKE</text><text class="cls-12" transform="translate(205.01 388.66)">OLD</text><text class="cls-12" transform="translate(382.59 525.69)">CUTE</text><text class="cls-12" transform="translate(110.58 117.82)">FEE<tspan class="cls-6" x="38.9" y="0">L</tspan></text><text class="cls-12" transform="translate(309.86 542.39)">JASON</text><text class="cls-12" transform="translate(38.58 126.06)">LOVED</text><text class="cls-12" transform="translate(325.85 603.7)">TEENAGER</text><text class="cls-12" transform="translate(180.72 409.2)">BOYS</text><text class="cls-12" transform="translate(110.58 65.24)">GIRLFRIEND</text><text class="cls-12" transform="translate(72.3 177.89)">WRITE</text><text class="cls-15" transform="translate(151.2 382.03)">KISSING</text><text class="cls-15" transform="translate(291.92 525.69)">AGO</text><text class="cls-15" transform="translate(0 90.74)">ARTIST</text><text class="cls-15" transform="translate(21.94 254.6)">C<tspan class="cls-11" x="8.12" y="0">A</tspan><tspan class="cls-16" x="15.41" y="0">THOLIC</tspan></text><text class="cls-15" transform="translate(628.53 80.14)">DORM</text><text class="cls-15" transform="translate(359.59 502.19)">HAND</text><text class="cls-15" transform="translate(314.33 555.89)">FRUSTR<tspan class="cls-11" x="45.62" y="0">A</tspan><tspan x="52.91" y="0">TED</tspan></text><text class="cls-15" transform="translate(219.01 22.66)">CHICAGO</text><text class="cls-15" transform="translate(198.93 44.65)">FUCKED</text><text class="cls-15" transform="translate(250.16 449.5)">BED</text><text class="cls-15" transform="translate(0 126.06)">BAB<tspan class="cls-17" x="24.37" y="0">Y</tspan></text><text class="cls-15" transform="translate(92.42 233.31)">SOPHOMORE</text><text class="cls-15" transform="translate(0 187.54)">SWEETHEART</text><text class="cls-15" transform="translate(576.65 288.4)">MILKSHAKE</text><text class="cls-15" transform="translate(140.61 275.5)">HAIR</text><text class="cls-15" transform="translate(370.15 583.39)">REL<tspan class="cls-11" x="22.5" y="0">A</tspan><tspan class="cls-16" x="29.79" y="0">TIONSHI</tspan><tspan class="cls-18" x="75.42" y="0">P</tspan></text><text class="cls-15" transform="translate(451.47 603.7)">SNEAKING</text><text class="cls-15" transform="translate(230 462.74)">GIRLS</text><text class="cls-15" transform="translate(642.36 275.5)">ELECTRIC</text><text class="cls-15" transform="translate(491.17 548.39)">DIVINE</text><text class="cls-15" transform="translate(21.93 171.28)">PROM</text><text class="cls-15" transform="translate(351.86 634.73)">ALCOHO<tspan class="cls-19" x="48.75" y="0">L</tspan></text><text class="cls-15" transform="translate(334.13 519.19)">KISSES</text><text class="cls-15" transform="translate(12 226.82)">LOVEEEEEEEE</text><text class="cls-15" transform="translate(284.92 509.4)">ENGAGED</text><text class="cls-15" transform="translate(116.42 339.03)">HEARTBREAK</text><text class="cls-15" transform="translate(59.86 292.64)">UNCONTROLLAB<tspan class="cls-13" x="94.99" y="0">L</tspan><tspan class="cls-19" x="100.83" y="0">Y</tspan></text><text class="cls-15" transform="translate(156.19 34.7)">DOUCHE</text><text class="cls-15" transform="translate(512.03 527.69)">SPOON</text><text class="cls-15" transform="translate(435.15 81.52)">INSE<tspan class="cls-20" x="26.26" y="0">P</tspan><tspan x="32.93" y="0">ARABLE</tspan></text><text class="cls-15" transform="translate(191.72 292.64)">MICHIGAN</text><text class="cls-15" transform="translate(677.32 81.52)">KISS</text><text class="cls-15" transform="translate(701.75 210.45)">LIZZ<tspan class="cls-17" x="23.74" y="0">Y</tspan></text><text class="cls-15" transform="translate(389.66 210.45)">JEWISH</text><text class="cls-15" transform="translate(274.25 346.71)">PUPP<tspan class="cls-18" x="30.64" y="0">Y</tspan></text><text class="cls-15" transform="translate(562.92 9.65)">EMBARRASSING</text><text class="cls-15" transform="translate(703.75 188.81)">PIZZ<tspan class="cls-14" x="24.37" y="0">A</tspan></text><text class="cls-15" transform="translate(703.75 162.81)">BIKES</text><text class="cls-15" transform="translate(416.75 542.39)">TWINK</text><text class="cls-15" transform="translate(370.14 654.39)">ENGLISH</text><text class="cls-21" transform="translate(92.42 318.05)">P<tspan class="cls-16" x="6.67" y="0">ARTYING</tspan></text><text class="cls-15" transform="translate(637.51 65.24)">FLEETING</text><text class="cls-15" transform="translate(578.38 267.15)">LETTERS</text><text class="cls-15" transform="translate(434.21 562.2)">INTELLIGENT</text><text class="cls-15" transform="translate(389.66 665.33)">STUDYING</text><text class="cls-15" transform="translate(44.62 51.44)">ARTISTICAL<tspan class="cls-13" x="66.87" y="0">L</tspan><tspan class="cls-19" x="72.71" y="0">Y</tspan></text><text class="cls-15" transform="translate(38.58 275.5)">MANIPUL<tspan class="cls-11" x="51.25" y="0">A</tspan><tspan x="58.54" y="0">TIVE</tspan></text><text class="cls-15" transform="translate(92.42 34.7)">SUNSET</text><text class="cls-21" transform="translate(411.73 645.95)">T<tspan class="cls-16" x="6.04" y="0">ALENTED</tspan></text><text class="cls-15" transform="translate(567.92 65.24)">FL<tspan class="cls-22" x="13.74" y="0">A</tspan><tspan x="21.25" y="0">WS</tspan></text><text class="cls-15" transform="translate(370.14 622.27)">EXPERIMEN<tspan class="cls-20" x="66.26" y="0">TA</tspan><tspan x="79.59" y="0">TION</tspan></text><text class="cls-15" transform="translate(507.17 509.4)">EXPLODED</text><text class="cls-15" transform="translate(334.86 571.12)">SINGING</text><path class="cls-1" transform="translate(-29.86 -60.97)"/><text class="cls-23" transform="translate(703.75 725.08)">fir<tspan class="cls-24" x="13.14" y="0">s</tspan><tspan x="19.01" y="0">t l</tspan><tspan class="cls-25" x="30.95" y="0">o</tspan><tspan class="cls-26" x="38.26" y="0">v</tspan><tspan class="cls-27" x="45" y="0">e</tspan></text></svg>