<svg id="Layer_1" data-name="Layer 1" xmlns="http://www.w3.org/2000/svg" viewBox="0 0 750.76 722.79"><defs><style>.cls-1{fill:none;}.cls-10,.cls-12,.cls-13,.cls-18,.cls-2,.cls-3,.cls-4,.cls-6,.cls-7,.cls-8{isolation:isolate;fill:#fa6cac;font-family:Arial-BoldMT, Arial;font-weight:700;}.cls-2{font-size:110px;}.cls-3{font-size:90px;}.cls-4{font-size:80px;}.cls-5{letter-spacing:-0.02em;}.cls-6{font-size:70px;}.cls-7{font-size:60px;}.cls-8{font-size:40px;}.cls-9{letter-spacing:-0.09em;}.cls-10{font-size:30px;}.cls-11{letter-spacing:-0.07em;}.cls-12{font-size:20px;}.cls-13{font-size:20.87px;}.cls-14{letter-spacing:-0.09em;}.cls-15{letter-spacing:-0.02em;}.cls-16{letter-spacing:-0.06em;}.cls-17{letter-spacing:-0.04em;}.cls-18{font-size:10px;}.cls-19{font-size:12px;font-family:Gotham-MediumItalic, Gotham;font-style:italic;}.cls-20{letter-spacing:-0.01em;}</style></defs><title>first_crush</title><path class="cls-1" transform="translate(-20.52 -53.09)"/><text class="cls-2" transform="translate(337 222.42)">NAME</text><text class="cls-3" transform="translate(142.72 417.35)">GRADE</text><text class="cls-4" transform="translate(240.76 303.97)">SCHOO<tspan class="cls-5" x="293.36" y="0">L</tspan></text><text class="cls-4" transform="translate(68.25 106.2)">CLASS</text><text class="cls-6" transform="translate(315.88 533.51)">CUTE</text><text class="cls-7" transform="translate(91.62 354.83)">BO<tspan class="cls-5" x="90" y="0">Y</tspan></text><text class="cls-7" transform="translate(307.74 459.22)">GIR<tspan class="cls-5" x="106.67" y="0">L</tspan></text><text class="cls-7" transform="translate(47.61 309.97)">FIRST</text><text class="cls-8" transform="translate(25.9 255.81)">CRUSH</text><text class="cls-8" transform="translate(9.01 196.85)">DOC<tspan class="cls-5" x="88.89" y="0">T</tspan><tspan x="112.6" y="0">OR</tspan></text><text class="cls-8" transform="translate(254.27 228.92)">KID</text><text class="cls-8" transform="translate(470.87 57.64)">REMEMBER</text><text class="cls-8" transform="translate(612.94 246.68)">YEARS</text><text class="cls-8" transform="translate(470.87 340.96)">PL<tspan class="cls-9" x="51.11" y="0">A</tspan><tspan class="cls-5" x="76.33" y="0">Y</tspan></text><text class="cls-8" transform="translate(560.37 395.92)">SAME</text><text class="cls-8" transform="translate(654.34 156.21)">NICE</text><text class="cls-10" transform="translate(518.42 495.72)">LIKED</text><text class="cls-10" transform="translate(290.99 174.19)">90s</text><text class="cls-10" transform="translate(543.17 130.63)">BLONDE</text><text class="cls-10" transform="translate(105.52 44.24)">LOVE</text><text class="cls-10" transform="translate(480.94 551.6)">MADE</text><text class="cls-10" transform="translate(575.48 433.73)">SH<tspan class="cls-5" x="41.67" y="0">Y</tspan></text><text class="cls-10" transform="translate(167.46 263.5)">HAIR</text><text class="cls-10" transform="translate(228.11 457.27)"><tspan class="cls-11">T</tspan><tspan x="16.1" y="0">ALK</tspan></text><text class="cls-10" transform="translate(101.47 166.61)">PROBAB<tspan class="cls-9" x="130" y="0">L</tspan><tspan class="cls-5" x="145.58" y="0">Y</tspan></text><text class="cls-10" transform="translate(297.15 125.94)">MOVED</text><text class="cls-10" transform="translate(494.44 106.2)"><tspan class="cls-5">T</tspan><tspan x="17.78" y="0">OGETHER</tspan></text><text class="cls-10" transform="translate(332 574.69)">FOUND</text><text class="cls-10" transform="translate(84.9 222.42)">FRIENDS</text><text class="cls-12" transform="translate(453.95 579.88)">PEOPLE</text><text class="cls-12" transform="translate(569.84 17.16)">SEEMED</text><text class="cls-12" transform="translate(307.74 551.6)">L<tspan class="cls-11" x="12.22" y="0">A</tspan><tspan x="25.18" y="0">TER</tspan></text><text class="cls-12" transform="translate(506.33 239.85)">THOUGHT</text><text class="cls-12" transform="translate(673.18 312.6)">BEST</text><text class="cls-12" transform="translate(543.17 458.22)">JAMES</text><text class="cls-12" transform="translate(242.72 133.63)">WENT</text><text class="cls-12" transform="translate(417.04 115.99)">HIGH</text><text class="cls-12" transform="translate(673.18 115.99)">KISS</text><text class="cls-12" transform="translate(429.29 140.09)">WEIRD</text><text class="cls-12" transform="translate(167.46 433.73)">STRAIGHT</text><text class="cls-13" transform="translate(624.41 340.96) scale(0.96 1)">ON<tspan class="cls-14" x="31.3" y="0">L</tspan><tspan class="cls-15" x="42.13" y="0">Y</tspan></text><text class="cls-12" transform="translate(361.95 618.83)">COURAGE</text><text class="cls-12" transform="translate(199.69 44.24)">EMBARRASSED</text><text class="cls-12" transform="translate(0 222.42)"><tspan class="cls-5">T</tspan><tspan x="11.86" y="0">O</tspan><tspan class="cls-11" x="27.41" y="0">T</tspan><tspan x="38.14" y="0">AL</tspan><tspan class="cls-9" x="64.8" y="0">L</tspan><tspan class="cls-5" x="75.19" y="0">Y</tspan></text><text class="cls-12" transform="translate(453.95 369.59)">MIDDLE</text><text class="cls-12" transform="translate(348.34 141.01)">MOM</text><text class="cls-12" transform="translate(189.4 17.16)"><tspan class="cls-11">PA</tspan><tspan x="24.81" y="0">TIENT</tspan></text><text class="cls-12" transform="translate(12.47 144.01)">POPULAR</text><text class="cls-12" transform="translate(466.48 459.22)">HEART</text><text class="cls-12" transform="translate(498.94 141.01)">OLD</text><text class="cls-12" transform="translate(644.45 174.19)">WORLD</text><text class="cls-12" transform="translate(653.34 71.94)">G<tspan class="cls-11" x="15.56" y="0">A</tspan><tspan x="28.52" y="0">VE</tspan></text><text class="cls-12" transform="translate(575.48 360.29)">SECOND</text><text class="cls-12" transform="translate(68.25 121.99)"><tspan class="cls-11">T</tspan><tspan x="10.73" y="0">AL</tspan><tspan class="cls-5" x="37.39" y="0">L</tspan></text><text class="cls-12" transform="translate(588.95 312.6)">FRIEND</text><text class="cls-12" transform="translate(569.84 81.7)">CUT</text><text class="cls-12" transform="translate(331.99 481.71)">FUNN<tspan class="cls-5" x="55.55" y="0">Y</tspan></text><text class="cls-12" transform="translate(187.43 181.69)">ANOTHER</text><text class="cls-12" transform="translate(150.46 138.63)">ALMOST</text><text class="cls-12" transform="translate(561.47 287.25)"><tspan class="cls-16">W</tspan><tspan x="17.77" y="0">ANTED</tspan></text><text class="cls-12" transform="translate(340.49 600.48)"><tspan class="cls-16">F</tspan><tspan x="11.11" y="0">ACE</tspan></text><text class="cls-12" transform="translate(263.28 323.19)">BECAME</text><text class="cls-12" transform="translate(433.76 81.7)">MEMO<tspan class="cls-17" x="62.22" y="0">R</tspan><tspan class="cls-5" x="75.92" y="0">Y</tspan></text><text class="cls-12" transform="translate(447.87 433.73)">NOTHING</text><text class="cls-18" transform="translate(690.08 263.5)">WIL<tspan class="cls-9" x="18.33" y="0">L</tspan><tspan class="cls-5" x="23.52" y="0">Y</tspan></text><text class="cls-18" transform="translate(423.79 481.71)">LIFE</text><text class="cls-18" transform="translate(290.99 239.85)"><tspan class="cls-16">F</tspan><tspan x="5.56" y="0">AMILIAR</tspan></text><text class="cls-18" transform="translate(222.18 330.5)">MAGICA<tspan class="cls-5" x="40.55" y="0">L</tspan></text><text class="cls-18" transform="translate(227.9 197.78)">PHO<tspan class="cls-5" x="21.67" y="0">T</tspan><tspan x="27.6" y="0">OS</tspan></text><text class="cls-18" transform="translate(273.54 502.56)">MAUDE</text><text class="cls-18" transform="translate(682.91 276.48)"><tspan class="cls-11">P</tspan><tspan x="5.93" y="0">ARENTS</tspan></text><text class="cls-18" transform="translate(369.28 636.16)">BABYS<tspan class="cls-11" x="35" y="0">A</tspan><tspan x="41.48" y="0">T</tspan></text><text class="cls-18" transform="translate(466.48 120.12)">FEMINIST</text><text class="cls-18" transform="translate(453.95 399.92)">APPRECI<tspan class="cls-11" x="44.45" y="0">A</tspan><tspan x="50.93" y="0">TE</tspan></text><text class="cls-18" transform="translate(297.15 187.69)"><tspan class="cls-16">W</tspan><tspan x="8.89" y="0">ALKED</tspan></text><text class="cls-18" transform="translate(524.53 411.1)">ARTHUR</text><text class="cls-18" transform="translate(453.95 600.48)">PL<tspan class="cls-9" x="12.78" y="0">A</tspan><tspan x="19.08" y="0">YGROUND</tspan></text><text class="cls-18" transform="translate(671.18 89.69)">LIT</text><text class="cls-18" transform="translate(408.56 551.6)">SERENDIPIT<tspan class="cls-5" x="60.01" y="0">Y</tspan></text><text class="cls-18" transform="translate(658.03 197.78)">BRIGHTEST</text><text class="cls-18" transform="translate(440.79 239.85)">ANSWERING</text><text class="cls-18" transform="translate(700.33 212.15)"><tspan class="cls-16">F</tspan><tspan x="5.56" y="0">AMI</tspan><tspan class="cls-9" x="23.89" y="0">L</tspan><tspan class="cls-5" x="29.08" y="0">Y</tspan></text><text class="cls-18" transform="translate(25.9 162.61)">FELLOW</text><text class="cls-18" transform="translate(543.17 71.94)">S<tspan class="cls-11" x="6.67" y="0">T</tspan><tspan x="12.04" y="0">AR</tspan></text><text class="cls-18" transform="translate(189.4 239.85)">NEIGHBORS</text><text class="cls-18" transform="translate(418.34 588.17)"><tspan class="cls-11">A</tspan><tspan x="6.48" y="0">TTIC</tspan></text><text class="cls-18" transform="translate(263.28 471.54)">CRUSHED</text><text class="cls-18" transform="translate(388.2 323.19)">COMFOR<tspan class="cls-11" x="44.44" y="0">T</tspan><tspan x="49.8" y="0">ABLE</tspan></text><text class="cls-18" transform="translate(400.2 651.99)">COLLEGE</text><text class="cls-18" transform="translate(423.79 636.16)">M<tspan class="cls-11" x="8.33" y="0">A</tspan><tspan x="14.81" y="0">TURE</tspan></text><text class="cls-18" transform="translate(290.99 141.01)">GROU<tspan class="cls-5" x="30" y="0">P</tspan></text><text class="cls-18" transform="translate(116 120.12)">RIDICULOUS</text><text class="cls-18" transform="translate(694.18 94.69)">SMART</text><text class="cls-18" transform="translate(582.47 330.5)">CUTIE</text><text class="cls-18" transform="translate(15.47 101.2)">BROTHER</text><text class="cls-18" transform="translate(41.61 81.7)">LINE</text><text class="cls-18" transform="translate(348.34 239.85)">CHOCOL<tspan class="cls-11" x="43.33" y="0">A</tspan><tspan x="49.81" y="0">TE</tspan></text><text class="cls-18" transform="translate(331.99 81.7)">ADMIRER</text><text class="cls-18" transform="translate(273.54 340.96)"><tspan class="cls-16">F</tspan><tspan x="5.56" y="0">AINT</tspan></text><text class="cls-18" transform="translate(15.47 114.48)">CHUBB<tspan class="cls-5" x="36.11" y="0">Y</tspan></text><text class="cls-18" transform="translate(518.42 521.51)">TEACHER</text><text class="cls-18" transform="translate(325.93 340.96)">BRUNETTE</text><text class="cls-18" transform="translate(511.87 471.54)">MOMENT</text><text class="cls-18" transform="translate(631.03 263.5)">ANDREAS</text><text class="cls-18" transform="translate(524.53 388.35)">OLDER</text><text class="cls-18" transform="translate(524.53 25.35)">WILDER</text><text class="cls-18" transform="translate(423.79 94.69)">SECRET</text><path class="cls-1" transform="translate(-20.52 -53.09)"/><text class="cls-19" transform="translate(676.91 719.49)">fir<tspan class="cls-20" x="13.14" y="0">s</tspan><tspan x="19.01" y="0">t crush</tspan></text></svg>