<svg id="Layer_1" data-name="Layer 1" xmlns="http://www.w3.org/2000/svg" viewBox="0 0 797.34 769.45"><defs><style>.cls-1{fill:none;}.cls-11,.cls-12,.cls-2,.cls-3,.cls-4,.cls-6,.cls-8{isolation:isolate;fill:#f90808;font-family:Arial-BoldMT, Arial;font-weight:700;}.cls-2{font-size:105px;}.cls-3{font-size:90px;}.cls-4{font-size:75px;}.cls-5{letter-spacing:-0.07em;}.cls-6{font-size:60px;}.cls-7{letter-spacing:-0.02em;}.cls-8{font-size:45px;}.cls-9{letter-spacing:-0.02em;}.cls-10{letter-spacing:-0.06em;}.cls-11{font-size:30px;}.cls-12{font-size:15px;}.cls-13{letter-spacing:-0.04em;}.cls-14{letter-spacing:-0.09em;}.cls-15{font-size:12px;font-family:Gotham-MediumItalic, Gotham;font-style:italic;}.cls-16{letter-spacing:0em;}.cls-17{letter-spacing:-0.04em;}.cls-18{letter-spacing:-0.02em;}.cls-19{letter-spacing:0em;}</style></defs><title>romantic_love</title><path class="cls-1" transform="translate(0 -15.56)"/><text class="cls-2" transform="translate(138.24 332.16)">FIRST</text><text class="cls-3" transform="translate(211.26 479.41)">LOVE</text><text class="cls-4" transform="translate(296.22 387.01)"><tspan class="cls-5">P</tspan><tspan x="44.46" y="0">ARTNER</tspan></text><text class="cls-4" transform="translate(363.95 202.68)">OUTSIDE</text><text class="cls-6" transform="translate(437.39 290.22)">AROUND</text><text class="cls-6" transform="translate(172.27 386.01)">SEX</text><text class="cls-6" transform="translate(85.22 145.46)">BOYFRIEND</text><text class="cls-6" transform="translate(122.88 194.96)">MAKING</text><text class="cls-6" transform="translate(138.24 244.74)">THUNDERS<tspan class="cls-7" x="333.34" y="0">T</tspan><tspan x="368.91" y="0">ORM</tspan></text><text class="cls-8" transform="translate(556.29 145.46)">LOVED</text><text class="cls-8" transform="translate(362.95 704.09)">NIGHT</text><text class="cls-8" transform="translate(380.66 668.14)">SWEET</text><text class="cls-8" transform="translate(455.02 464.67)">LONG</text><text class="cls-8" transform="translate(265.57 62.16)">MAN</text><text class="cls-8" transform="translate(274.92 560.3)">ROMANTIC</text><text class="cls-8" transform="translate(426.41 330.16)">S<tspan class="cls-5" x="30.01" y="0">T</tspan><tspan x="54.16" y="0">ARTED</tspan></text><text class="cls-8" transform="translate(547.17 79.72)">BAR</text><text class="cls-8" transform="translate(461.68 425.31)">STIL<tspan class="cls-7" x="97.49" y="0">L</tspan></text><text class="cls-8" transform="translate(282.84 521.21)">REL<tspan class="cls-5" x="90" y="0">A</tspan><tspan x="119.16" y="0">TIONSHI</tspan><tspan class="cls-9" x="301.66" y="0">P</tspan></text><text class="cls-8" transform="translate(426.41 98.65)">FEE<tspan class="cls-7" x="87.52" y="0">L</tspan></text><text class="cls-8" transform="translate(570.85 110.99)"><tspan class="cls-7">T</tspan><tspan x="26.67" y="0">OLD</tspan></text><text class="cls-8" transform="translate(309.48 632.3)"><tspan class="cls-10">W</tspan><tspan x="39.99" y="0">ANTED</tspan></text><text class="cls-8" transform="translate(138.24 98.65)">MONTHS</text><text class="cls-8" transform="translate(378.01 594.78)">INTENSE</text><text class="cls-11" transform="translate(461.68 483.24)">DURING</text><text class="cls-11" transform="translate(433.41 120.8)">BEACH</text><text class="cls-11" transform="translate(211.26 409.53)">CONVERS<tspan class="cls-5" x="148.36" y="0">A</tspan><tspan x="167.8" y="0">TION</tspan></text><text class="cls-11" transform="translate(32.56 279.92)">PEOPLE</text><text class="cls-11" transform="translate(588.3 441.32)">D<tspan class="cls-5" x="21.67" y="0">A</tspan><tspan x="41.1" y="0">TING</tspan></text><text class="cls-11" transform="translate(70.56 310.71)">FUL<tspan class="cls-7" x="58.32" y="0">L</tspan></text><text class="cls-11" transform="translate(652.64 69.16)">OFF</text><text class="cls-11" transform="translate(24.56 223.3)">MIDDLE</text><text class="cls-11" transform="translate(23.97 384.44)">CURRENT</text><text class="cls-11" transform="translate(279.84 591.78)">YEAR</text><text class="cls-11" transform="translate(455.02 145.46)">WEIRD</text><text class="cls-11" transform="translate(0 252.16)">HUSBAND</text><text class="cls-11" transform="translate(185.02 33.13)">CRUSH</text><text class="cls-11" transform="translate(160.32 62.16)">GUESS</text><text class="cls-11" transform="translate(588.3 488.24)">HEAD</text><text class="cls-11" transform="translate(4 193.96)">VISIT</text><text class="cls-11" transform="translate(138.24 33.13)">EX</text><text class="cls-11" transform="translate(32.56 353.45)">DIS<tspan class="cls-5" x="50.01" y="0">T</tspan><tspan x="66.11" y="0">ANCE</tspan></text><text class="cls-11" transform="translate(548.85 43.39)">BRE<tspan class="cls-5" x="63.34" y="0">A</tspan><tspan x="82.78" y="0">TH</tspan></text><text class="cls-11" transform="translate(97.32 416.1)">ALONE</text><text class="cls-11" transform="translate(138.24 465.91)">WINE</text><text class="cls-11" transform="translate(516.67 550.01)">MOMENT</text><text class="cls-11" transform="translate(639.65 321.93)">MOVING</text><text class="cls-11" transform="translate(426.41 62.16)">SK<tspan class="cls-5" x="41.67" y="0">A</tspan><tspan x="61.11" y="0">TED</tspan></text><text class="cls-11" transform="translate(116.88 441.32)">BITCH</text><text class="cls-11" transform="translate(588.3 417.1)">DANCING</text><text class="cls-11" transform="translate(455.02 33.13)">SK<tspan class="cls-5" x="41.67" y="0">A</tspan><tspan x="61.11" y="0">TE</tspan></text><text class="cls-11" transform="translate(388.66 729.6)">HANDS</text><text class="cls-11" transform="translate(230.93 502.21)">ICE</text><text class="cls-11" transform="translate(588.3 465.91)">RIGHT</text><text class="cls-11" transform="translate(652.64 232.34)">FEELING</text><text class="cls-12" transform="translate(47.3 68.44)">BF</text><text class="cls-12" transform="translate(16 298.71)">DRINK</text><text class="cls-12" transform="translate(39.3 117.8)">TIGHT</text><text class="cls-12" transform="translate(727.08 276.28)">HORROR</text><text class="cls-12" transform="translate(727.08 60.16)">LIFE</text><text class="cls-12" transform="translate(172.27 12.87)">CHEST</text><text class="cls-12" transform="translate(652.64 395.01)"><tspan class="cls-5">P</tspan><tspan x="8.89" y="0">ASSION</tspan><tspan class="cls-5" x="66.4" y="0">A</tspan><tspan x="76.12" y="0">TE</tspan></text><text class="cls-12" transform="translate(652.64 353.45)">GIRLFRIEND</text><text class="cls-12" transform="translate(39.3 145.46)">VOICE</text><text class="cls-12" transform="translate(288.84 29.13)">SMELLS</text><text class="cls-12" transform="translate(49.3 324.93)">ENCHANTING</text><text class="cls-12" transform="translate(74.56 60.16)">EVE<tspan class="cls-13" x="30.01" y="0">R</tspan><tspan x="40.29" y="0">YD</tspan><tspan class="cls-14" x="61.13" y="0">A</tspan><tspan class="cls-7" x="70.58" y="0">Y</tspan></text><text class="cls-12" transform="translate(752.34 84.72)">LIKED</text><text class="cls-12" transform="translate(16 91)">D<tspan class="cls-14" x="10.83" y="0">A</tspan><tspan x="20.29" y="0">YS</tspan></text><text class="cls-12" transform="translate(211.26 521.21)">CHINESE</text><text class="cls-12" transform="translate(323.42 668.14)">CAND<tspan class="cls-7" x="43.33" y="0">Y</tspan></text><text class="cls-12" transform="translate(503.37 630.3)">JACKET</text><text class="cls-12" transform="translate(729.46 141.46)">FLINGS</text><text class="cls-12" transform="translate(740.46 262.93)">FOGG<tspan class="cls-7" x="44.17" y="0">Y</tspan></text><text class="cls-12" transform="translate(543.17 99.65)"><tspan class="cls-10">A</tspan><tspan x="10" y="0">WE</tspan></text><text class="cls-12" transform="translate(717.55 117.8)">THREE</text><text class="cls-12" transform="translate(652.64 339.49)">ROADTRIPPING</text><text class="cls-12" transform="translate(704.25 250.16)">ENDS</text><text class="cls-12" transform="translate(698.77 99.65)"><tspan class="cls-10">F</tspan><tspan x="8.33" y="0">AMI</tspan><tspan class="cls-14" x="35.83" y="0">L</tspan><tspan class="cls-7" x="43.62" y="0">Y</tspan></text><text class="cls-12" transform="translate(341.21 77.72)">FLOOR</text><text class="cls-12" transform="translate(698.77 290.22)">PHYSICAL<tspan class="cls-14" x="75.84" y="0">L</tspan><tspan class="cls-7" x="83.63" y="0">Y</tspan></text><text class="cls-12" transform="translate(317.42 648.41)">TRAINS</text><text class="cls-12" transform="translate(341.2 91)">MIDNIGHT</text><text class="cls-12" transform="translate(671.15 33.13)">S<tspan class="cls-5" x="10" y="0">T</tspan><tspan class="cls-14" x="18.05" y="0">A</tspan><tspan x="27.51" y="0">YING</tspan></text><text class="cls-12" transform="translate(3 215.44)">GF</text><text class="cls-12" transform="translate(434.39 763.8)">KISS</text><text class="cls-12" transform="translate(228.93 540.21)"><tspan class="cls-5">P</tspan><tspan x="8.89" y="0">ART</tspan><tspan class="cls-7" x="39.72" y="0">Y</tspan></text><text class="cls-12" transform="translate(652.64 382.44)">ADMIR<tspan class="cls-5" x="49.16" y="0">A</tspan><tspan x="58.88" y="0">TION</tspan></text><text class="cls-12" transform="translate(698.77 79.72)">LIVED</text><text class="cls-12" transform="translate(726.08 179.99)">REMOTE</text><text class="cls-12" transform="translate(505.37 611.04)">SMOKE<tspan class="cls-7" x="55" y="0">Y</tspan></text><text class="cls-12" transform="translate(64.07 77.72)">MOMENTS</text><text class="cls-12" transform="translate(70.56 98.65)">MONE<tspan class="cls-7" x="45" y="0">Y</tspan></text><text class="cls-12" transform="translate(85.22 184.99)">E<tspan class="cls-5" x="10" y="0">A</tspan><tspan x="19.72" y="0">T</tspan></text><text class="cls-12" transform="translate(413.66 747.72)">GRIPPED</text><text class="cls-12" transform="translate(160.32 479.41)">CHARM</text><text class="cls-12" transform="translate(185.02 498.71)">HUNG</text><text class="cls-12" transform="translate(704.25 162.65)">JUNK</text><text class="cls-12" transform="translate(16 132.65)">LETTING</text><text class="cls-12" transform="translate(64.07 162.65)">SHORT</text><text class="cls-12" transform="translate(95.32 44.39)">S<tspan class="cls-5" x="10" y="0">A</tspan><tspan x="19.72" y="0">VING</tspan></text><text class="cls-12" transform="translate(570.85 16.18)">MAR<tspan class="cls-5" x="34.16" y="0">A</tspan><tspan x="43.88" y="0">THONING</tspan></text><text class="cls-12" transform="translate(6 162.65)">IDIOT</text><text class="cls-12" transform="translate(230.93 12.87)">UN<tspan class="cls-5" x="21.67" y="0">A</tspan><tspan x="31.38" y="0">VOIDABLE</tspan></text><text class="cls-12" transform="translate(698.77 202.68)"><tspan class="cls-7">T</tspan><tspan x="8.89" y="0">OUCHING</tspan></text><text class="cls-12" transform="translate(640.65 367.55)">OVERLOOKING</text><text class="cls-12" transform="translate(4 105.65)">FILMS</text><path class="cls-1" transform="translate(0 -15.56)"/><text class="cls-15" transform="translate(685.25 761.8)"><tspan class="cls-16">r</tspan><tspan x="4.88" y="0">omantic l</tspan><tspan class="cls-17" x="60.54" y="0">o</tspan><tspan class="cls-18" x="67.85" y="0">v</tspan><tspan class="cls-19" x="74.59" y="0">e</tspan></text></svg>