<svg id="Layer_1" data-name="Layer 1" xmlns="http://www.w3.org/2000/svg" viewBox="0 0 752.16 736.8"><defs><style>.cls-1{fill:none;}.cls-12,.cls-15,.cls-19,.cls-2,.cls-3,.cls-4,.cls-5,.cls-6,.cls-7,.cls-8,.cls-9{isolation:isolate;fill:#fa6cac;font-family:Arial-BoldMT, Arial;font-weight:700;}.cls-2{font-size:130px;}.cls-3{font-size:120px;}.cls-4{font-size:90px;}.cls-5{font-size:70px;}.cls-6{font-size:60px;}.cls-7{font-size:50px;}.cls-8{font-size:40px;}.cls-9{font-size:30px;}.cls-10,.cls-19{letter-spacing:-0.07em;}.cls-11{letter-spacing:-0.02em;}.cls-12{font-size:20px;}.cls-13{letter-spacing:-0.06em;}.cls-14{letter-spacing:-0.09em;}.cls-15,.cls-19{font-size:11.25px;}.cls-16{letter-spacing:0em;}.cls-17{letter-spacing:-0.07em;}.cls-18{letter-spacing:-0.02em;}.cls-20{letter-spacing:-0.02em;}.cls-21{letter-spacing:-0.06em;}.cls-22{letter-spacing:-0.06em;}.cls-23{letter-spacing:-0.04em;}.cls-24{letter-spacing:-0.02em;}.cls-25{letter-spacing:-0.09em;}.cls-26{font-size:12px;font-family:Gotham-MediumItalic, Gotham;font-style:italic;}.cls-27{letter-spacing:-0.01em;}.cls-28{letter-spacing:0em;}.cls-29{letter-spacing:-0.04em;}.cls-30{letter-spacing:-0.02em;}</style></defs><title>what_is_love</title><path class="cls-1" transform="translate(-35.01 -52.07)"/><text class="cls-2" transform="translate(384.11 215.8)">LOVE</text><text class="cls-3" transform="translate(73.04 309.77)">SOMEONE</text><text class="cls-4" transform="translate(0 152.42)">PERSON</text><text class="cls-5" transform="translate(195.12 365.27)">BEING</text><text class="cls-6" transform="translate(362.11 502.89)">FEELING</text><text class="cls-7" transform="translate(494.22 100.09)">CARE</text><text class="cls-8" transform="translate(298.61 538.56)">YOURSELF</text><text class="cls-8" transform="translate(73.04 49.72)">AROUND</text><text class="cls-9" transform="translate(342.13 592.58)">RESPECT</text><text class="cls-9" transform="translate(225.64 433.67)">REL<tspan class="cls-10" x="60" y="0">A</tspan><tspan x="79.44" y="0">TIONSHI</tspan><tspan class="cls-11" x="201.11" y="0">P</tspan></text><text class="cls-9" transform="translate(421.27 381.4)">UNDERS<tspan class="cls-10" x="126.68" y="0">T</tspan><tspan x="142.78" y="0">ANDING</tspan></text><text class="cls-9" transform="translate(57.39 208.07)">ANOTHER</text><text class="cls-12" transform="translate(243.3 73.31)">PLUS</text><text class="cls-12" transform="translate(298.61 393.94)">TRUSTING</text><text class="cls-12" transform="translate(409.22 563.6)">VULNERABLE</text><text class="cls-12" transform="translate(429.78 122.27)">DEE<tspan class="cls-11" x="41.12" y="0">P</tspan></text><text class="cls-12" transform="translate(603.1 42.75)">MOMENT</text><text class="cls-12" transform="translate(225.64 208.07)">WORLD</text><text class="cls-12" transform="translate(330.44 194.69)">STIL<tspan class="cls-11" x="43.33" y="0">L</tspan></text><text class="cls-12" transform="translate(0 182.89)">KNOWING</text><text class="cls-12" transform="translate(537.1 446.37)">WRONG</text><text class="cls-12" transform="translate(115.5 169.31)">BOND</text><text class="cls-12" transform="translate(529.28 340.82)">FOREVER</text><text class="cls-12" transform="translate(291.19 477.78)">FL<tspan class="cls-13" x="24.43" y="0">A</tspan><tspan x="37.77" y="0">WS</tspan></text><text class="cls-12" transform="translate(384.11 653.12)">FEE<tspan class="cls-11" x="38.9" y="0">L</tspan></text><text class="cls-12" transform="translate(128.74 340.82)">SHOW</text><text class="cls-12" transform="translate(556.33 400.72)"><tspan class="cls-13">W</tspan><tspan x="17.77" y="0">ANTING</tspan></text><text class="cls-12" transform="translate(128.74 73.31)">FEELINGS</text><text class="cls-12" transform="translate(487.58 42.75)">A<tspan class="cls-13" x="14.44" y="0">LW</tspan><tspan class="cls-14" x="43.33" y="0">A</tspan><tspan x="55.94" y="0">YS</tspan></text><text class="cls-15" transform="translate(460.32 353.98)">SUPPORTING</text><text class="cls-15" transform="translate(31.81 85.3)">LETTER</text><text class="cls-15" transform="translate(305.09 453.09)">UNADU<tspan class="cls-10" x="40.62" y="0">L</tspan><tspan class="cls-16" x="46.66" y="0">TER</tspan><tspan class="cls-17" x="69.16" y="0">A</tspan><tspan x="76.45" y="0">TED</tspan></text><text class="cls-15" transform="translate(441.63 412.18)">STRONG</text><text class="cls-15" transform="translate(12.19 226.4)">CHALLENGES</text><text class="cls-15" transform="translate(441.63 446.37)">SIMP<tspan class="cls-14" x="27.5" y="0">L</tspan><tspan class="cls-18" x="33.34" y="0">Y</tspan></text><text class="cls-19" transform="translate(586.62 420.05)">P<tspan class="cls-16" x="6.67" y="0">ASSING</tspan></text><text class="cls-15" transform="translate(219.38 182.89)">OVE<tspan class="cls-20" x="23.76" y="0">R</tspan><tspan x="31.68" y="0">WHELMING</tspan></text><text class="cls-15" transform="translate(90.39 321.86)">SPEND</text><text class="cls-15" transform="translate(360.94 606.16)">BEST</text><text class="cls-15" transform="translate(409.22 623.23)">SHARING</text><text class="cls-15" transform="translate(674.42 252.74)">OPENING</text><text class="cls-15" transform="translate(494.22 169.31)"><tspan class="cls-21">F</tspan><tspan x="6.25" y="0">ACING</tspan></text><text class="cls-15" transform="translate(225.64 400.72)">FO<tspan class="cls-22" x="15.62" y="0">W</tspan><tspan x="25.62" y="0">ARD</tspan></text><text class="cls-15" transform="translate(501.33 420.05)">DINNER</text><text class="cls-15" transform="translate(142.11 353.98)">ANSWER</text><text class="cls-15" transform="translate(243.3 453.09)">HARD</text><text class="cls-15" transform="translate(649.74 68.17)"><tspan class="cls-21">F</tspan><tspan x="6.25" y="0">AMI</tspan><tspan class="cls-14" x="26.87" y="0">L</tspan><tspan class="cls-20" x="32.71" y="0">Y</tspan></text><text class="cls-15" transform="translate(646.93 353.98)">LEVE<tspan class="cls-20" x="29.38" y="0">L</tspan></text><text class="cls-15" transform="translate(178.62 381.4)">SAFE</text><text class="cls-15" transform="translate(128.74 85.3)">PRESSURE</text><text class="cls-15" transform="translate(102.18 182.89)">CONNECTEDNESS</text><text class="cls-15" transform="translate(472.56 393.94)">REACHED</text><text class="cls-15" transform="translate(421.27 326.67)">TENDERNESS</text><text class="cls-15" transform="translate(593.37 13.4)">BINA<tspan class="cls-23" x="27.5" y="0">R</tspan><tspan class="cls-20" x="35.21" y="0">Y</tspan></text><text class="cls-15" transform="translate(57.39 68.17)">EARTH</text><text class="cls-15" transform="translate(629.83 111.42)">COMFOR<tspan class="cls-10" x="49.99" y="0">T</tspan><tspan x="56.03" y="0">ABLE</tspan></text><text class="cls-15" transform="translate(263.06 40.08)"><tspan class="cls-22">W</tspan><tspan class="cls-10" x="10" y="0">A</tspan><tspan x="17.29" y="0">TER</tspan></text><text class="cls-15" transform="translate(305.09 554.87)">STRESSED</text><text class="cls-15" transform="translate(645.12 326.67)">HAPPINESS</text><text class="cls-15" transform="translate(12.19 260.87)">SPEAK</text><text class="cls-15" transform="translate(186.95 160.52)">GUSH<tspan class="cls-24" x="32.5" y="0">Y</tspan></text><text class="cls-15" transform="translate(547.64 111.42)">ACCEPT</text><text class="cls-15" transform="translate(178.62 275.01)">GUSH<tspan class="cls-24" x="32.5" y="0">Y</tspan></text><text class="cls-15" transform="translate(313.09 57.54)">FEAR</text><text class="cls-15" transform="translate(537.1 13.4)">HAPP<tspan class="cls-20" x="31.26" y="0">Y</tspan></text><text class="cls-15" transform="translate(157.72 9.65)">ROMANTIC</text><text class="cls-15" transform="translate(219.38 381.4)"><tspan class="cls-10">PA</tspan><tspan x="13.96" y="0">TIENCE</tspan></text><text class="cls-15" transform="translate(305.09 85.3)">LO<tspan class="cls-25" x="15.62" y="0">Y</tspan><tspan class="cls-16" x="22.09" y="0">A</tspan><tspan class="cls-10" x="30.22" y="0">L</tspan><tspan x="36.25" y="0">T</tspan><tspan class="cls-20" x="43.13" y="0">Y</tspan></text><text class="cls-15" transform="translate(364.99 633.93)">SOCIE<tspan class="cls-10" x="35.01" y="0">T</tspan><tspan x="41.04" y="0">A</tspan><tspan class="cls-18" x="49.17" y="0">L</tspan></text><text class="cls-15" transform="translate(441.63 68.17)">KINDNESS</text><text class="cls-15" transform="translate(243.3 493.85)">THE UNDE<tspan class="cls-20" x="57.5" y="0">R</tspan><tspan x="65.42" y="0">WOODS</tspan></text><text class="cls-15" transform="translate(0 208.07)"><tspan class="cls-22">W</tspan><tspan class="cls-10" x="10" y="0">A</tspan><tspan x="17.29" y="0">VES</tspan></text><text class="cls-15" transform="translate(421.27 152.43)">ABILIT<tspan class="cls-18" x="36.24" y="0">Y</tspan></text><text class="cls-15" transform="translate(453.94 606.16)">BULLSHIT</text><path class="cls-1" transform="translate(-35.01 -52.07)"/><text class="cls-26" transform="translate(681.42 733.5)">wh<tspan class="cls-27" x="17.65" y="0">a</tspan><tspan class="cls-28" x="24.53" y="0">t is l</tspan><tspan class="cls-29" x="49.49" y="0">o</tspan><tspan class="cls-30" x="56.8" y="0">v</tspan><tspan x="63.54" y="0">e</tspan></text></svg>